# This file uses centimeters as units for non-parametric coordinates.

mtllib Áv³¡.mtl
g default
v 0.790835 -0.840746 -0.158250
v 0.790724 -0.840746 0.171394
v 0.790724 -1.022096 0.171394
v 0.790843 -0.941798 -0.178996
v 0.262299 -1.417026 0.588515
v 0.262309 -1.217591 0.558970
v 0.000000 -1.217591 0.558902
v 0.000000 -1.417026 0.588448
v 0.262309 -0.840689 0.558970
v 0.000000 -0.840689 0.558902
v 0.000000 -0.515307 0.222666
v 0.096278 -0.515307 0.222691
v 0.176444 -0.515313 0.201982
v 0.238397 -0.515328 0.143361
v 0.290227 -0.515328 0.080437
v 0.290267 -0.515328 -0.040555
v 0.238485 -0.515328 -0.114556
v 0.176564 -0.515313 -0.151812
v 0.096409 -0.515307 -0.164999
v 0.000000 -0.515307 -0.165024
v 0.262665 -0.840689 -0.497300
v 0.262688 -0.945065 -0.563779
v 0.000000 -0.945065 -0.563847
v 0.000000 -0.840689 -0.497369
v 0.262742 -1.210205 -0.726282
v 0.000000 -1.210205 -0.726350
v 0.262742 -1.431799 -0.726282
v 0.000000 -1.431799 -0.726350
v 0.262703 -1.646008 -0.608099
v 0.000000 -1.646008 -0.608166
v 0.262600 -1.727260 -0.305251
v 0.000000 -1.727260 -0.305320
v 0.262468 -1.697714 0.086233
v 0.000000 -1.697714 0.086165
v 0.262338 -1.586917 0.470332
v 0.000000 -1.586917 0.470263
v 0.480989 -1.677992 -0.286115
v 0.480867 -1.651029 0.071141
v 0.480749 -1.549919 0.364306
v 0.480713 -1.394884 0.461361
v 0.480722 -1.212886 0.437097
v 0.480722 -0.840704 0.502545
v 0.481047 -0.840704 -0.461371
v 0.481068 -0.966839 -0.522038
v 0.481118 -1.206145 -0.670333
v 0.481118 -1.408365 -0.670333
v 0.481081 -1.603845 -0.562481
v 0.649797 -1.156924 -0.495856
v 0.649804 -1.342083 -0.512200
v 0.649777 -1.484589 -0.433576
v 0.649708 -1.538643 -0.232103
v 0.649621 -1.518986 0.028338
v 0.649535 -1.445276 0.240307
v 0.649507 -1.332255 0.311061
v 0.649515 -1.199577 0.293372
v 0.649515 -0.840746 0.293372
v 0.649751 -0.840746 -0.359866
v 0.649762 -0.947090 -0.391848
v 0.815688 -1.050080 -0.229704
v 0.741764 -1.180644 -0.229704
v 0.719175 -1.281132 -0.192828
v 0.719146 -1.319248 -0.098314
v 0.719108 -1.305387 0.023862
v 0.741650 -1.253411 0.143738
v 0.741638 -1.147102 0.180621
v 0.235435 -0.692714 0.501230
v 0.000000 -0.692714 0.501169
v 0.000000 -0.692714 -0.446846
v 0.235755 -0.692714 -0.446784
v 0.431755 -0.692728 -0.414537
v 0.583169 -0.692766 -0.323436
v 0.709792 -0.692766 -0.142483
v 0.709693 -0.692766 0.153376
v 0.582956 -0.692766 0.307244
v 0.431463 -0.692728 0.450587
v 0.496301 -0.571387 0.097596
v 0.407673 -0.571387 0.205197
v 0.301733 -0.571361 0.305438
v 0.164649 -0.571351 0.340852
v 0.000000 -0.571351 0.340810
v 0.000000 -0.571351 -0.322143
v 0.164873 -0.571351 -0.322100
v 0.301937 -0.571361 -0.299550
v 0.407822 -0.571387 -0.235841
v 0.496372 -0.571387 -0.109300
vn 1.000000 0.000004 0.000339
vn 1.000000 0.000004 0.000339
vn 1.000000 0.000004 0.000339
vn 1.000000 0.000004 0.000339
vn -0.000254 0.146547 0.989204
vn -0.000254 0.146547 0.989204
vn -0.000254 0.146547 0.989204
vn -0.000254 0.146546 0.989204
vn -0.000259 0.000000 1.000000
vn -0.000259 0.000000 1.000000
vn -0.000259 0.000000 1.000000
vn -0.000259 0.000000 1.000000
vn 0.000071 1.000000 -0.000000
vn 0.000071 1.000000 -0.000000
vn 0.000071 1.000000 -0.000000
vn 0.000071 1.000000 -0.000000
vn 0.000071 1.000000 -0.000000
vn 0.000071 1.000000 -0.000000
vn 0.000071 1.000000 -0.000000
vn 0.000071 1.000000 -0.000000
vn 0.000071 1.000000 -0.000000
vn 0.000071 1.000000 -0.000000
vn 0.000220 0.537206 -0.843451
vn 0.000220 0.537206 -0.843451
vn 0.000220 0.537206 -0.843451
vn 0.000220 0.537206 -0.843451
vn 0.000221 0.522557 -0.852604
vn 0.000221 0.522557 -0.852604
vn 0.000221 0.522557 -0.852604
vn 0.000221 0.522557 -0.852604
vn 0.000259 0.000000 -1.000000
vn 0.000259 0.000000 -1.000000
vn 0.000259 0.000000 -1.000000
vn 0.000259 0.000000 -1.000000
vn 0.000225 -0.483075 -0.875579
vn 0.000225 -0.483075 -0.875579
vn 0.000225 -0.483075 -0.875579
vn 0.000225 -0.483075 -0.875579
vn 0.000067 -0.965843 -0.259129
vn 0.000067 -0.965843 -0.259129
vn 0.000067 -0.965843 -0.259129
vn 0.000067 -0.965843 -0.259129
vn -0.000020 -0.997164 0.075257
vn -0.000020 -0.997164 0.075257
vn -0.000020 -0.997164 0.075257
vn -0.000020 -0.997164 0.075257
vn -0.000072 -0.960824 0.277159
vn -0.000072 -0.960824 0.277159
vn -0.000072 -0.960824 0.277159
vn -0.000072 -0.960824 0.277159
vn -0.000213 -0.571061 0.820908
vn -0.000213 -0.571061 0.820908
vn -0.000213 -0.571061 0.820908
vn -0.000213 -0.571061 0.820908
vn 0.213330 -0.974204 0.073597
vn 0.213330 -0.974204 0.073597
vn 0.213330 -0.974204 0.073597
vn 0.213330 -0.974204 0.073597
vn 0.256749 -0.922355 0.288687
vn 0.256749 -0.922355 0.288687
vn 0.256749 -0.922356 0.288687
vn 0.256749 -0.922355 0.288687
vn 0.461219 -0.489928 0.739762
vn 0.461219 -0.489928 0.739762
vn 0.461219 -0.489928 0.739762
vn 0.461219 -0.489928 0.739762
vn 0.485880 0.122067 0.865460
vn 0.485880 0.122067 0.865460
vn 0.485880 0.122067 0.865460
vn 0.485880 0.122067 0.865460
vn 0.377412 -0.080602 0.922531
vn 0.377412 -0.080602 0.922531
vn 0.377412 -0.080602 0.922531
vn 0.377412 -0.080602 0.922531
vn 0.176970 0.475385 -0.861795
vn 0.176970 0.475385 -0.861795
vn 0.176970 0.475385 -0.861795
vn 0.176970 0.475385 -0.861795
vn 0.207111 0.513207 -0.832900
vn 0.207111 0.513207 -0.832900
vn 0.207111 0.513207 -0.832900
vn 0.207111 0.513207 -0.832900
vn 0.248188 0.000000 -0.968712
vn 0.248188 0.000000 -0.968712
vn 0.248188 0.000000 -0.968712
vn 0.248188 0.000000 -0.968712
vn 0.266205 -0.465683 -0.843963
vn 0.266205 -0.465684 -0.843963
vn 0.266205 -0.465683 -0.843963
vn 0.266205 -0.465684 -0.843963
vn 0.233921 -0.939066 -0.251866
vn 0.233921 -0.939066 -0.251866
vn 0.233921 -0.939066 -0.251866
vn 0.233921 -0.939066 -0.251866
vn 0.696476 0.030261 -0.716941
vn 0.696476 0.030261 -0.716941
vn 0.696476 0.030261 -0.716941
vn 0.696476 0.030261 -0.716941
vn 0.710824 -0.339887 -0.615797
vn 0.710824 -0.339887 -0.615797
vn 0.710824 -0.339887 -0.615797
vn 0.710824 -0.339887 -0.615797
vn 0.660896 -0.724899 -0.194263
vn 0.660896 -0.724899 -0.194263
vn 0.660896 -0.724899 -0.194263
vn 0.660896 -0.724899 -0.194263
vn 0.624401 -0.778873 0.058996
vn 0.624401 -0.778873 0.058996
vn 0.624401 -0.778873 0.058996
vn 0.624401 -0.778873 0.058996
vn 0.636081 -0.729109 0.252591
vn 0.636081 -0.729109 0.252591
vn 0.636081 -0.729109 0.252591
vn 0.636081 -0.729109 0.252591
vn 0.689377 -0.384266 0.614084
vn 0.689377 -0.384266 0.614084
vn 0.689377 -0.384266 0.614084
vn 0.689377 -0.384266 0.614084
vn 0.640310 0.101474 0.761384
vn 0.640310 0.101474 0.761384
vn 0.640310 0.101474 0.761384
vn 0.640310 0.101474 0.761384
vn 0.722392 -0.061662 0.688729
vn 0.722392 -0.061662 0.688729
vn 0.722392 -0.061662 0.688729
vn 0.722392 -0.061662 0.688729
vn 0.524645 0.315230 -0.790808
vn 0.524645 0.315230 -0.790808
vn 0.524645 0.315230 -0.790808
vn 0.524645 0.315230 -0.790808
vn 0.566328 0.403734 -0.718520
vn 0.566328 0.403734 -0.718520
vn 0.566328 0.403734 -0.718520
vn 0.566328 0.403734 -0.718520
vn 0.817401 0.142013 -0.558290
vn 0.817401 0.142013 -0.558290
vn 0.817401 0.142013 -0.558290
vn 0.817401 0.142013 -0.558290
vn 0.756597 0.332892 -0.562800
vn 0.756597 0.332892 -0.562800
vn 0.756597 0.332892 -0.562800
vn 0.756597 0.332892 -0.562800
vn 0.920827 -0.198198 -0.335849
vn 0.920827 -0.198198 -0.335849
vn 0.920827 -0.198198 -0.335849
vn 0.920827 -0.198198 -0.335849
vn 0.968624 -0.174342 -0.177123
vn 0.968624 -0.174342 -0.177123
vn 0.968624 -0.174342 -0.177123
vn 0.968624 -0.174342 -0.177123
vn 0.965506 -0.248695 -0.077124
vn 0.965506 -0.248695 -0.077124
vn 0.965506 -0.248695 -0.077124
vn 0.965506 -0.248695 -0.077124
vn 0.949386 -0.312886 0.027720
vn 0.949386 -0.312886 0.027720
vn 0.949386 -0.312886 0.027720
vn 0.949386 -0.312886 0.027720
vn 0.932552 -0.353993 0.070969
vn 0.932552 -0.353993 0.070969
vn 0.932552 -0.353993 0.070969
vn 0.932552 -0.353993 0.070969
vn 0.895065 -0.196330 0.400391
vn 0.895065 -0.196330 0.400391
vn 0.895065 -0.196330 0.400391
vn 0.895065 -0.196330 0.400391
vn 0.790974 -0.087443 0.605568
vn 0.790975 -0.087443 0.605568
vn 0.790974 -0.087443 0.605568
vn 0.790974 -0.087443 0.605568
vn 0.653696 0.000000 0.756757
vn 0.653696 0.000000 0.756757
vn 0.653696 0.000000 0.756757
vn 0.653696 0.000000 0.756757
vn 0.990874 -0.115359 0.069720
vn 0.990874 -0.115359 0.069720
vn 0.990874 -0.115359 0.069720
vn 0.990874 -0.115359 0.069720
vn 0.953200 -0.301310 0.024923
vn 0.953200 -0.301310 0.024923
vn 0.953200 -0.301310 0.024923
vn 0.953200 -0.301310 0.024923
vn 0.971152 -0.235352 -0.038396
vn 0.971152 -0.235352 -0.038396
vn 0.971151 -0.235352 -0.038396
vn 0.971151 -0.235352 -0.038396
vn 0.971151 -0.235352 -0.038396
vn -0.000241 0.363470 0.931606
vn -0.000241 0.363470 0.931606
vn -0.000241 0.363470 0.931606
vn -0.000241 0.363470 0.931606
vn 0.000249 0.323115 -0.946360
vn 0.000249 0.323115 -0.946360
vn 0.000249 0.323115 -0.946360
vn 0.000249 0.323115 -0.946360
vn 0.152457 0.344018 -0.926503
vn 0.152457 0.344018 -0.926503
vn 0.152457 0.344018 -0.926503
vn 0.152457 0.344018 -0.926503
vn 0.471452 0.404987 -0.783402
vn 0.471452 0.404987 -0.783402
vn 0.471452 0.404987 -0.783402
vn 0.471452 0.404987 -0.783402
vn 0.729943 0.454181 -0.510786
vn 0.729943 0.454181 -0.510786
vn 0.729943 0.454181 -0.510786
vn 0.729943 0.454181 -0.510786
vn 0.877095 0.480318 0.000295
vn 0.877095 0.480318 0.000295
vn 0.877094 0.480318 0.000295
vn 0.877095 0.480318 0.000295
vn 0.673285 0.344917 0.654003
vn 0.673285 0.344917 0.654003
vn 0.673285 0.344917 0.654003
vn 0.673285 0.344917 0.654003
vn 0.692776 0.352098 0.629356
vn 0.692776 0.352098 0.629356
vn 0.692776 0.352098 0.629356
vn 0.692776 0.352098 0.629356
vn 0.230375 0.389760 0.891636
vn 0.230375 0.389760 0.891636
vn 0.230375 0.389760 0.891636
vn 0.230375 0.389760 0.891636
vn 0.400210 0.855083 0.329642
vn 0.400210 0.855083 0.329642
vn 0.400210 0.855083 0.329642
vn 0.400210 0.855083 0.329642
vn 0.363831 0.848496 0.384294
vn 0.363831 0.848496 0.384294
vn 0.363831 0.848496 0.384294
vn 0.363831 0.848496 0.384294
vn 0.143711 0.818628 0.556053
vn 0.143711 0.818628 0.556053
vn 0.143711 0.818628 0.556053
vn 0.143711 0.818628 0.556053
vn -0.000155 0.797383 0.603474
vn -0.000155 0.797383 0.603474
vn -0.000155 0.797383 0.603474
vn -0.000155 0.797383 0.603474
vn 0.000183 0.716638 -0.697445
vn 0.000183 0.716638 -0.697445
vn 0.000183 0.716638 -0.697445
vn 0.000183 0.716638 -0.697445
vn 0.108789 0.742536 -0.660913
vn 0.108789 0.742536 -0.660913
vn 0.108789 0.742536 -0.660913
vn 0.108789 0.742536 -0.660913
vn 0.305061 0.806354 -0.506686
vn 0.305061 0.806354 -0.506686
vn 0.305060 0.806354 -0.506686
vn 0.305061 0.806354 -0.506686
vn 0.434756 0.847605 -0.304226
vn 0.434756 0.847605 -0.304226
vn 0.434756 0.847604 -0.304226
vn 0.434756 0.847604 -0.304226
vn 0.494389 0.869241 0.000167
vn 0.494389 0.869241 0.000167
vn 0.494389 0.869241 0.000167
vn 0.494389 0.869241 0.000167
vn 0.145164 0.959639 -0.240876
vn 0.145164 0.959639 -0.240876
vn 0.145164 0.959639 -0.240876
vn 0.145164 0.959639 -0.240876
vn 0.212945 0.965635 -0.149011
vn 0.212945 0.965635 -0.149011
vn 0.212945 0.965635 -0.149011
vn 0.212945 0.965635 -0.149011
vn 0.262486 0.964936 0.000089
vn 0.262486 0.964936 0.000089
vn 0.262486 0.964936 0.000089
vn 0.262486 0.964936 0.000089
vn 0.241763 0.949682 0.199135
vn 0.241763 0.949682 0.199135
vn 0.241763 0.949682 0.199135
vn 0.241763 0.949682 0.199135
vn 0.225750 0.944580 0.238340
vn 0.225750 0.944580 0.238340
vn 0.225750 0.944580 0.238340
vn 0.225750 0.944580 0.238340
vn 0.098121 0.919949 0.379560
vn 0.098121 0.919949 0.379560
vn 0.098121 0.919949 0.379560
vn 0.098121 0.919949 0.379560
vn -0.000110 0.903498 0.428593
vn -0.000110 0.903498 0.428593
vn -0.000110 0.903498 0.428593
vn -0.000110 0.903498 0.428593
vn 0.000087 0.941875 -0.335965
vn 0.000087 0.941875 -0.335965
vn 0.000087 0.941875 -0.335965
vn 0.000087 0.941875 -0.335965
vn 0.051957 0.947542 -0.315382
vn 0.051957 0.947541 -0.315382
vn 0.051957 0.947541 -0.315382
vn 0.051957 0.947542 -0.315382
s off
g al:pelvis1
usemtl initialShadingGroup
f 1//1 2//2 3//3 4//4
f 5//5 6//6 7//7 8//8
f 6//9 9//10 10//11 7//12
f 11//13 12//14 13//15 14//16 15//17 16//18 17//19 18//20 19//21 20//22
f 21//23 22//24 23//25 24//26
f 22//27 25//28 26//29 23//30
f 25//31 27//32 28//33 26//34
f 27//35 29//36 30//37 28//38
f 29//39 31//40 32//41 30//42
f 31//43 33//44 34//45 32//46
f 33//47 35//48 36//49 34//50
f 35//51 5//52 8//53 36//54
f 37//55 38//56 33//57 31//58
f 38//59 39//60 35//61 33//62
f 39//63 40//64 5//65 35//66
f 40//67 41//68 6//69 5//70
f 41//71 42//72 9//73 6//74
f 43//75 44//76 22//77 21//78
f 44//79 45//80 25//81 22//82
f 45//83 46//84 27//85 25//86
f 46//87 47//88 29//89 27//90
f 47//91 37//92 31//93 29//94
f 48//95 49//96 46//97 45//98
f 49//99 50//100 47//101 46//102
f 50//103 51//104 37//105 47//106
f 51//107 52//108 38//109 37//110
f 52//111 53//112 39//113 38//114
f 53//115 54//116 40//117 39//118
f 54//119 55//120 41//121 40//122
f 55//123 56//124 42//125 41//126
f 57//127 58//128 44//129 43//130
f 58//131 48//132 45//133 44//134
f 1//135 4//136 58//137 57//138
f 4//139 59//140 48//141 58//142
f 59//143 60//144 49//145 48//146
f 60//147 61//148 50//149 49//150
f 61//151 62//152 51//153 50//154
f 62//155 63//156 52//157 51//158
f 63//159 64//160 53//161 52//162
f 64//163 65//164 54//165 53//166
f 65//167 3//168 55//169 54//170
f 3//171 2//172 56//173 55//174
f 65//175 59//176 4//177 3//178
f 64//179 60//180 59//181 65//182
f 63//183 62//184 61//185 60//186 64//187
f 66//188 67//189 10//190 9//191
f 68//192 69//193 21//194 24//195
f 69//196 70//197 43//198 21//199
f 70//200 71//201 57//202 43//203
f 71//204 72//205 1//206 57//207
f 72//208 73//209 2//210 1//211
f 73//212 74//213 56//214 2//215
f 74//216 75//217 42//218 56//219
f 75//220 66//221 9//222 42//223
f 76//224 77//225 74//226 73//227
f 77//228 78//229 75//230 74//231
f 78//232 79//233 66//234 75//235
f 79//236 80//237 67//238 66//239
f 81//240 82//241 69//242 68//243
f 82//244 83//245 70//246 69//247
f 83//248 84//249 71//250 70//251
f 84//252 85//253 72//254 71//255
f 85//256 76//257 73//258 72//259
f 18//260 17//261 84//262 83//263
f 17//264 16//265 85//266 84//267
f 16//268 15//269 76//270 85//271
f 15//272 14//273 77//274 76//275
f 14//276 13//277 78//278 77//279
f 13//280 12//281 79//282 78//283
f 12//284 11//285 80//286 79//287
f 20//288 19//289 82//290 81//291
f 19//292 18//293 83//294 82//295
g default
v -0.790843 -0.941798 -0.178996
v -0.790724 -1.022096 0.171394
v -0.790724 -0.840746 0.171394
v -0.790835 -0.840746 -0.158250
v 0.000000 -1.417026 0.588448
v 0.000000 -1.217591 0.558902
v -0.262309 -1.217591 0.558970
v -0.262299 -1.417026 0.588515
v 0.000000 -0.840689 0.558902
v -0.262309 -0.840689 0.558970
v 0.000000 -0.515307 -0.165024
v -0.096409 -0.515307 -0.164999
v -0.176564 -0.515313 -0.151812
v -0.238485 -0.515328 -0.114556
v -0.290267 -0.515328 -0.040555
v -0.290227 -0.515328 0.080437
v -0.238397 -0.515328 0.143361
v -0.176444 -0.515313 0.201982
v -0.096278 -0.515307 0.222691
v 0.000000 -0.515307 0.222666
v 0.000000 -0.840689 -0.497369
v 0.000000 -0.945065 -0.563847
v -0.262688 -0.945065 -0.563779
v -0.262665 -0.840689 -0.497300
v 0.000000 -1.210205 -0.726350
v -0.262742 -1.210205 -0.726282
v 0.000000 -1.431799 -0.726350
v -0.262742 -1.431799 -0.726282
v 0.000000 -1.646008 -0.608166
v -0.262703 -1.646008 -0.608099
v 0.000000 -1.727260 -0.305320
v -0.262600 -1.727260 -0.305251
v 0.000000 -1.697714 0.086165
v -0.262468 -1.697714 0.086233
v 0.000000 -1.586917 0.470263
v -0.262338 -1.586917 0.470332
v -0.480867 -1.651029 0.071141
v -0.480989 -1.677992 -0.286115
v -0.480749 -1.549919 0.364306
v -0.480713 -1.394884 0.461361
v -0.480722 -1.212886 0.437097
v -0.480722 -0.840704 0.502545
v -0.481068 -0.966839 -0.522038
v -0.481047 -0.840704 -0.461371
v -0.481118 -1.206145 -0.670333
v -0.481118 -1.408365 -0.670333
v -0.481081 -1.603845 -0.562481
v -0.649804 -1.342083 -0.512200
v -0.649797 -1.156924 -0.495856
v -0.649777 -1.484589 -0.433576
v -0.649708 -1.538643 -0.232103
v -0.649621 -1.518986 0.028338
v -0.649535 -1.445276 0.240307
v -0.649507 -1.332255 0.311061
v -0.649515 -1.199577 0.293372
v -0.649515 -0.840746 0.293372
v -0.649762 -0.947090 -0.391848
v -0.649751 -0.840746 -0.359866
v -0.815688 -1.050080 -0.229704
v -0.741764 -1.180644 -0.229704
v -0.719175 -1.281132 -0.192828
v -0.719146 -1.319248 -0.098314
v -0.719108 -1.305387 0.023862
v -0.741650 -1.253411 0.143738
v -0.741638 -1.147102 0.180621
v 0.000000 -0.692714 0.501169
v -0.235435 -0.692714 0.501230
v -0.235755 -0.692714 -0.446784
v 0.000000 -0.692714 -0.446846
v -0.431755 -0.692728 -0.414537
v -0.583169 -0.692766 -0.323436
v -0.709792 -0.692766 -0.142483
v -0.709693 -0.692766 0.153376
v -0.582956 -0.692766 0.307244
v -0.431463 -0.692728 0.450587
v -0.407673 -0.571387 0.205197
v -0.496301 -0.571387 0.097596
v -0.301733 -0.571361 0.305438
v -0.164649 -0.571351 0.340852
v 0.000000 -0.571351 0.340810
v -0.164873 -0.571351 -0.322100
v 0.000000 -0.571351 -0.322143
v -0.301937 -0.571361 -0.299550
v -0.407822 -0.571387 -0.235841
v -0.496372 -0.571387 -0.109300
vn -0.974594 0.066693 -0.213818
vn -0.918516 -0.042019 0.393144
vn -0.912984 0.207818 0.351102
vn -0.938521 0.281044 -0.200483
vn 0.000251 -0.233398 0.972381
vn 0.000258 0.051196 0.998689
vn -0.204725 0.024460 0.978514
vn -0.230254 -0.219872 0.947966
vn 0.000258 0.105304 0.994440
vn -0.166917 0.078844 0.982813
vn -0.000075 0.998025 -0.062818
vn -0.003885 0.997938 -0.064073
vn -0.018543 0.998106 -0.058651
vn -0.042724 0.998045 -0.045618
vn -0.078203 0.996726 -0.020515
vn -0.076661 0.996731 0.025519
vn -0.042611 0.998251 0.040978
vn -0.031673 0.997449 0.063969
vn -0.006366 0.997520 0.070098
vn -0.000044 0.997848 0.065569
vn -0.000237 0.423464 -0.905913
vn -0.000221 0.526742 -0.850025
vn -0.090813 0.518014 -0.850538
vn -0.082181 0.419394 -0.904077
vn -0.000246 0.316656 -0.948540
vn -0.102902 0.309243 -0.945400
vn -0.000249 -0.261713 -0.965146
vn -0.118522 -0.262541 -0.957614
vn -0.000148 -0.818495 -0.574513
vn -0.117654 -0.810066 -0.574413
vn -0.000019 -0.997234 -0.074328
vn -0.100587 -0.991953 -0.076889
vn 0.000046 -0.984027 0.178018
vn -0.104075 -0.977962 0.180991
vn 0.000127 -0.872987 0.487743
vn -0.156154 -0.844215 0.512755
vn -0.410807 -0.895241 0.172571
vn -0.415135 -0.907022 -0.070528
vn -0.469739 -0.759615 0.449811
vn -0.572931 -0.190325 0.797199
vn -0.568367 -0.012212 0.822685
vn -0.550835 0.052518 0.832960
vn -0.376202 0.454832 -0.807217
vn -0.343841 0.392378 -0.853120
vn -0.422353 0.270603 -0.865097
vn -0.480944 -0.222025 -0.848173
vn -0.461679 -0.723601 -0.513082
vn -0.841071 -0.166761 -0.514578
vn -0.771064 0.146615 -0.619648
vn -0.829505 -0.464826 -0.309609
vn -0.791452 -0.609659 -0.043803
vn -0.772602 -0.624696 0.113320
vn -0.778669 -0.533922 0.329548
vn -0.758522 -0.151470 0.633799
vn -0.711336 -0.027563 0.702312
vn -0.705429 0.087958 0.703302
vn -0.677479 0.325470 -0.659615
vn -0.674393 0.346465 -0.652040
vn -0.966666 -0.018234 -0.255393
vn -0.959716 -0.232987 -0.157045
vn -0.970390 -0.218468 -0.103033
vn -0.962284 -0.271228 -0.021108
vn -0.953606 -0.300432 0.019420
vn -0.948581 -0.288073 0.131179
vn -0.954820 -0.194218 0.224941
vn 0.000206 0.605165 0.796100
vn -0.093626 0.610436 0.786512
vn -0.065174 0.530913 -0.844916
vn -0.000224 0.523238 -0.852187
vn -0.275823 0.585065 -0.762641
vn -0.528870 0.658405 -0.535537
vn -0.694816 0.695913 -0.181483
vn -0.692811 0.691785 0.203585
vn -0.558342 0.648651 0.517209
vn -0.399657 0.631776 0.664179
vn -0.336508 0.886952 0.316351
vn -0.407726 0.905825 0.115071
vn -0.234612 0.871921 0.429780
vn -0.058996 0.840955 0.537879
vn 0.000143 0.832639 0.553816
vn -0.037337 0.822823 -0.567070
vn -0.000149 0.821091 -0.570797
vn -0.163147 0.850425 -0.500160
vn -0.313440 0.888242 -0.335830
vn -0.408316 0.905358 -0.116642
s 1
g al:pelvis
usemtl initialShadingGroup
f 86//296 87//297 88//298 89//299
f 90//300 91//301 92//302 93//303
f 91//301 94//304 95//305 92//302
f 96//306 97//307 98//308 99//309 100//310 101//311 102//312 103//313 104//314 105//315
f 106//316 107//317 108//318 109//319
f 107//317 110//320 111//321 108//318
f 110//320 112//322 113//323 111//321
f 112//322 114//324 115//325 113//323
f 114//324 116//326 117//327 115//325
f 116//326 118//328 119//329 117//327
f 118//328 120//330 121//331 119//329
f 120//330 90//300 93//303 121//331
f 117//327 119//329 122//332 123//333
f 119//329 121//331 124//334 122//332
f 121//331 93//303 125//335 124//334
f 93//303 92//302 126//336 125//335
f 92//302 95//305 127//337 126//336
f 109//319 108//318 128//338 129//339
f 108//318 111//321 130//340 128//338
f 111//321 113//323 131//341 130//340
f 113//323 115//325 132//342 131//341
f 115//325 117//327 123//333 132//342
f 130//340 131//341 133//343 134//344
f 131//341 132//342 135//345 133//343
f 132//342 123//333 136//346 135//345
f 123//333 122//332 137//347 136//346
f 122//332 124//334 138//348 137//347
f 124//334 125//335 139//349 138//348
f 125//335 126//336 140//350 139//349
f 126//336 127//337 141//351 140//350
f 129//339 128//338 142//352 143//353
f 128//338 130//340 134//344 142//352
f 143//353 142//352 86//296 89//299
f 142//352 134//344 144//354 86//296
f 134//344 133//343 145//355 144//354
f 133//343 135//345 146//356 145//355
f 135//345 136//346 147//357 146//356
f 136//346 137//347 148//358 147//357
f 137//347 138//348 149//359 148//358
f 138//348 139//349 150//360 149//359
f 139//349 140//350 87//297 150//360
f 140//350 141//351 88//298 87//297
f 87//297 86//296 144//354 150//360
f 150//360 144//354 145//355 149//359
f 149//359 145//355 146//356 147//357 148//358
f 95//305 94//304 151//361 152//362
f 106//316 109//319 153//363 154//364
f 109//319 129//339 155//365 153//363
f 129//339 143//353 156//366 155//365
f 143//353 89//299 157//367 156//366
f 89//299 88//298 158//368 157//367
f 88//298 141//351 159//369 158//368
f 141//351 127//337 160//370 159//369
f 127//337 95//305 152//362 160//370
f 158//368 159//369 161//371 162//372
f 159//369 160//370 163//373 161//371
f 160//370 152//362 164//374 163//373
f 152//362 151//361 165//375 164//374
f 154//364 153//363 166//376 167//377
f 153//363 155//365 168//378 166//376
f 155//365 156//366 169//379 168//378
f 156//366 157//367 170//380 169//379
f 157//367 158//368 162//372 170//380
f 168//378 169//379 99//309 98//308
f 169//379 170//380 100//310 99//309
f 170//380 162//372 101//311 100//310
f 162//372 161//371 102//312 101//311
f 161//371 163//373 103//313 102//312
f 163//373 164//374 104//314 103//313
f 164//374 165//375 105//315 104//314
f 167//377 166//376 97//307 96//306
f 166//376 168//378 98//308 97//307
